<svg width="402" height="409" xmlns="http://www.w3.org/2000/svg"><path d="M65.908 258.797c-3.356.22-5.187-.229-7.116-1.746-1.428-1.123-3.913-4.407-5.522-7.296-1.61-2.89-4.069-8.18-5.465-11.755-1.396-3.575-3.531-10.325-4.743-15-1.213-4.675-2.285-11.425-2.383-15-.179-6.5-.179-6.5 4.307-6.819 2.467-.175 4.693-.527 4.947-.781.254-.254-.385-1.894-1.419-3.646-1.035-1.751-6.725-9.199-12.644-16.55-8.143-10.112-12.257-16.33-16.894-25.535-3.805-7.553-7.063-15.773-8.59-21.669-1.412-5.452-2.719-14.03-3.069-20.132-.357-6.235-.118-14.464.58-19.9.653-5.098 2.748-14.039 4.654-19.869 1.906-5.829 4.699-12.818 6.207-15.531 1.508-2.712 3.266-5.1 3.906-5.305.641-.205 2.639 1.79 4.44 4.432 1.802 2.643 5.684 7.841 8.626 11.552 2.943 3.711 8.03 8.977 11.304 11.702 3.275 2.725 9.001 6.765 12.726 8.978 3.725 2.213 9.504 5.133 12.844 6.49 3.339 1.357 9.993 3.433 14.785 4.612 4.793 1.18 9.416 1.876 10.274 1.547 1.066-.409 1.415-1.467 1.099-3.338-.253-1.506-2.558-7.785-5.122-13.954-2.564-6.168-5.607-15.168-6.763-20-1.603-6.698-2.112-12.12-2.143-22.834-.028-9.589.484-16.377 1.613-21.377.91-4.03 2.851-9.992 4.313-13.249 1.988-4.431 3.112-5.846 4.464-5.623.993.165 5.914 4.923 10.933 10.575 5.02 5.652 12.632 13.364 16.915 17.138 4.283 3.774 11.112 9.106 15.175 11.848 4.064 2.742 11.014 6.833 15.444 9.09 4.431 2.258 11.173 5.281 14.983 6.719 3.809 1.438 10.976 3.512 15.926 4.609 7.085 1.57 15.065 2.174 37.5 2.839 23.321.692 29.886 1.208 36.13 2.841 4.196 1.098 11.239 3.812 15.651 6.03 4.479 2.252 10.659 6.475 13.992 9.56 3.283 3.04 8.165 8.902 10.848 13.026 2.684 4.124 5.221 7.504 5.638 7.511.418.007 1.929-1.674 3.357-3.737 1.428-2.062 5.413-8.475 8.854-14.25 3.44-5.775 6.954-10.638 7.807-10.807 1.225-.242 1.672 1.02 2.123 6 .315 3.469.696 14.502.847 24.518.157 10.323.704 18.614 1.265 19.141.614.578 4.012.035 8.988-1.438 6.275-1.856 10.397-2.372 19.116-2.39 10.744-.023 11.351.094 18.173 3.507 3.882 1.942 8.53 5.204 10.329 7.25 3.271 3.719 3.271 3.719-6.935 4.28-5.613.309-10.662 1.018-11.22 1.576-.687.687.044 2.335 2.261 5.095 1.802 2.243 6.063 7.035 9.469 10.649 3.986 4.229 7.457 9.235 9.741 14.048 1.952 4.113 4.115 9.593 4.807 12.179.693 2.586 1.259 9.942 1.259 16.347 0 7.659-.462 12.654-1.351 14.595-1.352 2.95-1.352 2.95-4.754-.971-1.897-2.186-4.361-3.956-5.568-4-1.603-.059-2.357.699-2.906 2.921-.408 1.65-1.045 6.6-1.416 11-.372 4.4-1.788 11.375-3.148 15.5s-4.295 10.65-6.523 14.5c-2.228 3.85-4.952 7.788-6.053 8.75-1.484 1.297-3.754 1.75-8.77 1.75-6.455 0-6.818-.127-7.848-2.75-.594-1.512-2.033-11.3-3.197-21.75-1.164-10.45-2.557-20.716-3.097-22.812-.742-2.89-1.425-3.737-2.821-3.5-1.012.171-5.375 3.687-9.694 7.812-4.32 4.125-10.672 8.992-14.116 10.815-3.445 1.824-9.337 4.389-13.094 5.702-3.757 1.313-10.839 3.115-15.737 4.005-4.899.89-13.027 1.7-18.063 1.798-5.036.099-9.506-.165-9.933-.586-.427-.422.093-1.838 1.156-3.147l6.58-8.104c2.556-3.148 5.769-8.032 7.142-10.854 1.372-2.821 3.219-7.978 4.103-11.46.884-3.482 1.608-7.433 1.608-8.781 0-1.348-.652-2.701-1.449-3.007-.797-.305-2.034-.065-2.75.534-.715.599-3.551 2.637-6.301 4.529-2.75 1.891-9.05 6.203-14 9.582-4.95 3.379-14.85 8.993-22 12.476-7.15 3.483-17.063 7.498-22.029 8.923-4.966 1.425-12.841 3.262-17.5 4.082-5.579.981-15.164 1.491-28.072 1.492-11.656 0-20.877-.444-22.75-1.097-1.903-.663-3.149-1.785-3.149-2.836 0-1.36 2.23-2.333 10.25-4.473 5.637-1.504 14.458-4.721 19.602-7.148 5.143-2.428 12.118-6.397 15.5-8.821 3.381-2.423 8.318-6.557 10.971-9.186 2.653-2.629 6.392-6.694 8.308-9.033 1.917-2.339 4.007-5.636 4.645-7.325.95-2.518.886-3.346-.356-4.589-1.236-1.236-2.464-1.336-6.648-.543-2.823.536-8.651 1.857-12.952 2.937-4.301 1.08-11.42 2.561-15.82 3.29-4.4.729-15.425 1.325-24.5 1.325-10.194 0-19.175-.538-23.5-1.406-3.85-.774-10.375-2.473-14.5-3.775-4.125-1.303-9.606-2.641-12.18-2.975-4.68-.606-4.68-.606-5.199 2.775-.286 1.86-.787 7.656-1.114 12.881-.327 5.225-1.506 14-2.62 19.5s-4.003 15.816-6.42 22.925c-2.418 7.109-5.665 14.984-7.218 17.5-2.604 4.222-3.17 4.598-7.341 4.872zM140 369.709c-30.578.157-41.653-.108-45.208-1.085-2.589-.711-6.566-2.582-8.839-4.156-2.272-1.575-5.953-4.912-8.18-7.416-2.226-2.503-5.092-6.884-6.368-9.734-1.276-2.851-3.024-9.376-3.884-14.5-.861-5.125-2.287-10.982-3.171-13.015-1.08-2.486-2.792-4.246-5.228-5.374-1.992-.922-4.642-2.607-5.889-3.743-1.247-1.137-2.753-3.69-3.348-5.674-.852-2.845-.76-4.374.434-7.232.833-1.994 2.619-4.349 3.97-5.234 1.351-.885 5.008-2.025 8.126-2.532 4.885-.795 6.52-1.693 11.816-6.485 3.552-3.215 7.86-6.082 10.207-6.795 2.966-.901 16.344-1.234 49.562-1.234 45.019 0 45.548.023 50 2.225 2.475 1.224 6.75 4.196 9.5 6.606 5 4.38 5 4.38 19.994 4.887 14.995.507 14.995.507 20.887-4.825 3.241-2.933 7.968-6.133 10.506-7.112 4.176-1.612 8.84-1.781 49.222-1.781 40.172 0 44.969.172 48.231 1.725 1.993.949 6.327 4.211 9.633 7.25 4.925 4.528 6.648 5.525 9.55 5.525 1.948 0 5.072.64 6.943 1.421 1.891.79 4.097 2.766 4.968 4.451.861 1.666 1.564 4.514 1.561 6.328-.003 1.815-.791 4.439-1.75 5.831-.96 1.392-4.26 4.992-7.334 8-5.588 5.469-5.588 5.469-7.757 16.469-1.193 6.05-3.346 13.408-4.785 16.351-1.438 2.944-4.976 7.713-7.861 10.598-2.886 2.885-7.443 6.327-10.127 7.648C330.5 369.5 330.5 369.5 290 369.5c-31.01 0-41.536-.314-44.922-1.342-3.014-.914-6.236-3.156-10.125-7.045-3.137-3.137-6.671-7.601-7.854-9.919-1.183-2.319-2.587-7.699-3.119-11.955-.532-4.257-1.107-12.186-1.276-17.62-.292-9.366-.451-10.005-3.062-12.25-1.514-1.303-3.897-2.369-5.293-2.369-1.397 0-3.848.772-5.446 1.716-1.598.944-3.18 2.581-3.515 3.638-.336 1.057-.95 8.837-1.364 17.288-.711 14.488-.936 15.736-3.931 21.821-1.868 3.795-4.91 7.948-7.385 10.082-2.314 1.996-6.008 4.603-8.208 5.792-3.893 2.105-5.087 2.169-44.5 2.372zm2.5-18.077c27.047-.128 31.396-.362 34.102-1.838 1.705-.931 4.472-3.253 6.148-5.162 2.849-3.244 3.094-4.163 3.774-14.142.4-5.87.514-13.991.254-18.047-.361-5.619-1.045-8.21-2.876-10.884-1.321-1.931-3.883-4.309-5.693-5.285-3.006-1.62-7.012-1.774-46.169-1.774-42.878 0-42.878 0-45.476 2.44-1.429 1.342-3.084 4.064-3.679 6.05-.78 2.604-.768 6.24.043 13.06.619 5.197 1.592 12.15 2.164 15.45.572 3.3 2.139 7.684 3.482 9.741 1.344 2.058 4.317 4.983 6.608 6.5 2.867 1.899 6.059 2.958 10.242 3.398 3.342.352 20.026.574 37.076.493zm155-.315c13.2-.22 25.362-.607 27.026-.861 1.665-.255 4.715-1.855 6.779-3.556s4.635-4.823 5.714-6.937c1.078-2.114 2.641-7.808 3.472-12.653.832-4.846 1.611-12.41 1.731-16.81.169-6.182-.174-8.587-1.508-10.585-.95-1.421-2.919-3.221-4.375-4-2.161-1.154-10.241-1.415-43.901-1.415-41.253 0-41.253 0-45.096 3.104-2.113 1.707-4.279 4.329-4.812 5.827-.534 1.498-.984 10.528-1 20.068-.028 15.983.132 17.562 2.032 20.111 1.134 1.522 3.301 3.694 4.817 4.828 2.247 1.682 4.818 2.174 13.938 2.67 6.151.334 21.983.428 35.183.209z"/></svg>