<svg aria-hidden="true" data-prefix="fal" data-icon="portal-enter" class="svg-inline--fa fa-portal-enter fa-w-16" xmlns="http://www.w3.org/2000/svg" viewBox="0 0 512 512"><path fill="currentColor" d="M448 0c-49.104 0-60.525 142.787-63.176 216h-3.355l-9.032-27.125c-8.125-24.313-24.187-44-44.5-58.031C347 117.906 360 96.734 360 72a72 72 0 00-144 0 71.008 71.008 0 004.187 23.719 112.988 112.988 0 00-84.75 12.781L89.25 132.563a52.01 52.01 0 0052.438 89.828l18.937-9.844L101.75 344H52a52 52 0 000 104h62.906a83.9 83.9 0 0077.219-50.922l19.312-39.734 43.688 19.625-19.625 68.734A52.052 52.052 0 00271.187 510a52.892 52.892 0 0014.313 2 52.247 52.247 0 0050-37.688l24.375-85.406a84.16 84.16 0 00-12-71.11A85.077 85.077 0 00367.094 320H396a51.96 51.96 0 0020.76-99.61C419.979 111.337 437.04 48.013 448 33.876c12.125 15.64 32 90.578 32 222.125s-19.875 206.484-32 222.125c-8.756-11.295-21.46-53.984-27.896-126.125h-31.936c6.184 73.043 21.547 160 59.832 160 62.219 0 64-229.797 64-256S510.219 0 448 0zM288 32a40 40 0 11-40 40 39.997 39.997 0 0140-40zM162.687 384.484C155.25 401.875 133.875 416 114.938 416H52a20 20 0 010-40h62.906a11.998 11.998 0 0011.031-7.281l26.72-56.875a83.101 83.101 0 0029.968 31.422zM396 288h-28.969c-20.687 0-42.781-15.922-49.312-35.547l-13.594-40.797a43.29 43.29 0 00-15-20.672l-41.469 103.688 52.781 23.719a52.308 52.308 0 0128.688 61.734L304.719 465.5c-7.225 25.378-45.813 14.74-38.469-11l24.406-85.375a12.08 12.08 0 00-6.625-14.25s-85.812-39.047-88.719-41.172a52.121 52.121 0 01-18.5-57.875l37.75-87.562s-16.906-3.782-20.5-3.782a43.347 43.347 0 00-22.5 6.313l-45.25 23.516a23.585 23.585 0 01-10.28 2.843 19.999 19.999 0 01-10.313-37.14l45.25-23.532a83.78 83.78 0 0143.125-11.984 85.036 85.036 0 0120.5 2.531l68.187 17.047A83.596 83.596 0 01342.094 199l13.593 40.797A11.979 11.979 0 00367.062 248H396a20 20 0 010 40z"/></svg>