<svg width="3000" height="2360" xmlns="http://www.w3.org/2000/svg"><path d="M340 486c0-105.459.222-114.16 1.59-119.037.875-3.117 3.25-7.872 5.278-10.565 2.028-2.694 5.869-6.364 8.535-8.157 2.667-1.792 7.16-3.93 9.985-4.751 4.543-1.321 135.66-1.464 1136.645-1.242 1131.509.252 1131.509.252 1138.186 3.539 4.083 2.01 8.213 5.033 10.634 7.783 2.177 2.474 4.95 6.62 6.162 9.214 1.212 2.594 2.492 4.828 2.844 4.966.353.137.521 26.8.375 59.25l-.265 59H340z" fill="#ddd" stroke="#000" stroke-width="3" stroke-linejoin="round" stroke-linecap="round"/><path d="M339.996 487.5h2320.008l-.252 760.677c-.252 760.676-.252 760.676-2.323 763.5-1.139 1.552-3.614 3.61-5.5 4.571-3.259 1.662-60.482 1.749-1151.929 1.749-1091.447 0-1148.67-.087-1151.929-1.749-1.886-.961-4.361-3.019-5.5-4.571-2.071-2.824-2.071-2.824-2.323-763.5l-.252-760.677z" fill="#fff" stroke="#000" stroke-width="3" stroke-linejoin="round" stroke-linecap="round"/><defs><linearGradient id="a" gradientUnits="userSpaceOnUse" x1="373.005" y1="412.606" x2="527" y2="412.606"><stop offset="0" stop-color="#f64e34"/><stop offset=".2" stop-color="#ddd752"/><stop offset=".446" stop-color="#8a7ece"/><stop offset=".67" stop-color="#75de77"/><stop offset=".82" stop-color="#e619c0"/><stop offset="1" stop-color="#53b6f9"/></linearGradient></defs><path d="M391.3 430.995c-4.317-.004-6.795-.607-9.69-2.36-2.14-1.295-4.95-4.105-6.245-6.245-1.683-2.78-2.356-5.399-2.36-9.18-.003-3.342.739-6.747 2.015-9.249 1.111-2.177 3.713-5.08 5.783-6.449 2.07-1.37 5.787-2.768 8.259-3.107 3.117-.427 5.714-.108 8.467 1.042 2.184.913 5.264 2.873 6.844 4.356 1.58 1.483 3.493 4.145 4.25 5.915.757 1.77 1.377 4.822 1.377 6.782s-.696 5.231-1.548 7.268c-.851 2.038-2.538 4.766-3.75 6.063-1.211 1.298-3.417 2.991-4.902 3.764-1.486.773-5.311 1.403-8.5 1.4zm58.549-.018c-2.942-.012-6.843-.759-8.669-1.659-1.827-.9-4.373-3.027-5.658-4.727-1.286-1.7-2.838-4.973-3.45-7.273-.752-2.826-.804-5.557-.16-8.421.523-2.331 1.811-5.399 2.862-6.817 1.05-1.419 3.342-3.555 5.091-4.746 1.75-1.191 4.92-2.46 7.046-2.819 2.125-.359 5.751-.145 8.057.476s5.75 2.565 7.653 4.319c1.904 1.755 4.153 5.21 4.998 7.68.986 2.881 1.312 5.986.91 8.667-.345 2.298-1.903 5.939-3.462 8.091-1.559 2.153-4.417 4.665-6.352 5.583-1.953.927-5.896 1.659-8.866 1.646zm58.563.019c-4.004-.002-6.88-.601-8.912-1.857-1.65-1.019-3.77-2.721-4.712-3.782-.941-1.062-2.404-3.587-3.25-5.612-.846-2.024-1.538-5.06-1.538-6.745 0-1.685.699-4.737 1.553-6.782s2.731-4.947 4.17-6.45c1.44-1.503 4.547-3.469 6.905-4.37 2.948-1.126 5.65-1.433 8.648-.984 2.398.36 6.015 1.779 8.039 3.154 2.023 1.375 4.58 4.267 5.682 6.426 1.237 2.425 2.003 5.897 2.003 9.08 0 3.484-.725 6.444-2.239 9.138-1.251 2.226-4.048 5.044-6.338 6.386-3.08 1.805-5.568 2.401-10.011 2.398z" fill="url(#a)" stroke="#000" stroke-width="3" stroke-linejoin="round" stroke-linecap="round"/><path d="M1707.5 1440.5c107.37 1 107.37 1 110.458 3.958 1.697 1.628 3.559 4.778 4.136 7a337.72 337.72 0 002.063 7.542c.558 1.925 1.265 13.175 1.572 25 .333 12.831.116 25.734-.539 32-.604 5.775-1.547 12.896-2.096 15.825-.548 2.928-1.806 6.693-2.796 8.366-.989 1.673-3.373 3.859-5.298 4.859-1.925 1-6.714 2.523-10.643 3.384-6.292 1.379-21.967 1.548-131.5 1.419-68.396-.081-126.832-.497-129.857-.924a287.69 287.69 0 01-11-1.819c-4.104-.778-6.208-1.828-8.29-4.137-2.791-3.095-2.791-3.095-2.5-45.784.276-40.606.388-42.855 2.29-46.083 1.1-1.867 3.729-4.792 5.842-6.5 3.842-3.106 3.842-3.106 91-3.606l87.158-.5zm-478 0c107.37 1 107.37 1 110.458 3.958 1.697 1.628 3.559 4.778 4.136 7a337.72 337.72 0 002.063 7.542c.558 1.925 1.265 13.175 1.572 25 .333 12.831.116 25.734-.539 32-.604 5.775-1.547 12.896-2.096 15.825-.548 2.928-1.806 6.693-2.796 8.366-.989 1.673-3.373 3.859-5.298 4.859-1.925 1-6.714 2.523-10.643 3.384-6.292 1.379-21.967 1.548-131.5 1.419-68.396-.081-126.832-.497-129.857-.924a287.69 287.69 0 01-11-1.819c-4.104-.778-6.208-1.828-8.29-4.137-2.791-3.095-2.791-3.095-2.5-45.784.276-40.606.388-42.855 2.29-46.083 1.1-1.867 3.729-4.792 5.842-6.5 3.842-3.106 3.842-3.106 91-3.606l87.158-.5z" fill="none" stroke="#000" stroke-width="3" stroke-linejoin="round" stroke-linecap="round"/><path d="M2174 1357.902c-1.375-.033-2.962-.253-3.527-.49-.565-.236-300.257-.424-665.983-.416-664.956.013-664.956.013-672.628-2.542-4.219-1.405-9.783-3.954-12.365-5.664-2.582-1.71-6.942-5.914-9.69-9.343-3.276-4.089-5.934-6.422-7.721-6.78-2.141-.428-3.032-1.469-4.156-4.856-1.029-3.102-1.43-9.393-1.43-22.427 0-15.126.286-18.717 1.734-21.75 1.147-2.405 2.416-3.634 3.751-3.634 1.271 0 3.324-1.818 5.546-4.91 1.94-2.7 5.298-6.51 7.462-8.465 2.164-1.955 6.282-4.744 9.15-6.197 2.868-1.454 6.99-3.269 9.16-4.035 3.357-1.184 102.985-1.397 666.572-1.421 471.226-.02 663.896.283 667.023 1.051 3.077.756 4.715.764 5.45.029.579-.579 2.245-1.052 3.702-1.052 1.457 0 4.405 1.298 6.55 2.884 2.145 1.586 6.013 5.073 8.595 7.75 2.582 2.676 5.806 6.891 7.163 9.366 1.358 2.475 3.183 6.944 4.056 9.932 1.144 3.918 1.579 9.629 1.562 20.5-.014 8.287-.48 17.043-1.037 19.456-.556 2.414-2.202 6.914-3.657 10-1.455 3.087-5.151 8.259-8.214 11.495-3.062 3.236-7.593 7.165-10.068 8.731-2.475 1.567-5.625 2.821-7 2.788z" fill="#f8f8f8" stroke="#000" stroke-width="3" stroke-linejoin="round" stroke-linecap="round"/><defs><linearGradient id="b" gradientUnits="userSpaceOnUse" x1="1042.707" y1="982.436" x2="1959.5" y2="982.436"><stop offset="0" stop-color="#f64e34"/><stop offset=".2" stop-color="#ddd752"/><stop offset=".446" stop-color="#8a7ece"/><stop offset=".67" stop-color="#75de77"/><stop offset=".82" stop-color="#e619c0"/><stop offset="1" stop-color="#53b6f9"/></linearGradient></defs><path d="M1042.707 1031c34.202 0 34.202 0 34.788 3.75.322 2.063 1.058 5.55 1.635 7.75s2.399 6.127 4.049 8.727c1.836 2.893 5.344 6.292 9.04 8.761 3.323 2.218 9.1 4.963 12.839 6.098 4.147 1.26 10.044 2.133 15.12 2.24 4.577.096 11.218-.424 14.759-1.154 3.54-.73 8.545-2.396 11.123-3.702 2.578-1.307 6.503-4.439 8.723-6.96 2.689-3.056 4.442-6.28 5.254-9.665.67-2.793.967-7.522.658-10.507-.308-2.985-1.516-7.403-2.686-9.819-1.169-2.415-3.969-6.057-6.223-8.093-2.253-2.036-7.739-5.402-12.191-7.481-4.452-2.079-14.339-5.643-21.971-7.92-7.632-2.276-18.334-6.101-23.783-8.499-5.448-2.398-13.352-6.507-17.562-9.131-4.211-2.625-10.223-7.339-13.36-10.476-3.618-3.618-7.024-8.393-9.318-13.061-2.504-5.097-3.962-9.856-4.747-15.487-.807-5.796-.833-10.102-.093-15 .571-3.779 2.015-9.455 3.208-12.614 1.193-3.159 4.19-8.431 6.659-11.716 2.47-3.285 7.051-8.008 10.181-10.495 3.13-2.488 8.879-6.081 12.776-7.984 3.896-1.904 11.096-4.477 16-5.718 7.261-1.839 11.605-2.253 23.415-2.233 11.548.019 16.23.467 23 2.197 4.675 1.194 12.123 3.954 16.55 6.131 4.975 2.447 10.679 6.367 14.931 10.26 3.784 3.466 8.614 8.982 10.734 12.259 2.12 3.278 4.716 8.903 5.769 12.5 1.053 3.598 2.05 9.188 2.215 12.422.242 4.729-.042 6.1-1.453 7-1.09.696-7.318 1.12-16.46 1.12-14.705 0-14.705 0-15.553-3.5-.467-1.925-1.514-5.844-2.328-8.708-.815-2.865-3.249-7.445-5.41-10.179-2.953-3.736-5.852-5.921-11.664-8.792-7.734-3.821-7.734-3.821-21.282-3.821-12.517 0-13.973.199-19.116 2.611-3.061 1.436-7.188 4.28-9.169 6.32-1.982 2.041-4.408 5.366-5.392 7.39-1.02 2.099-1.96 6.776-2.188 10.891-.326 5.901-.005 8.027 1.767 11.687 1.191 2.46 4.009 6.139 6.263 8.175 2.253 2.036 7.739 5.396 12.191 7.467 4.452 2.07 15.52 6.102 24.595 8.959 9.075 2.857 20.325 6.968 25 9.137 4.675 2.168 10.975 5.551 14 7.517 3.025 1.966 8.126 6.11 11.335 9.21 3.209 3.1 7.133 7.497 8.72 9.772 1.586 2.275 3.828 6.531 4.982 9.459 1.154 2.927 2.498 8.828 2.987 13.113.533 4.672.514 11.096-.047 16.042-.697 6.152-1.842 10.09-4.504 15.488-2.409 4.883-5.678 9.325-10.048 13.652-4.132 4.092-9.275 7.865-14.202 10.419-4.248 2.203-10.873 4.942-14.723 6.088-3.85 1.146-11.05 2.534-16 3.085-4.95.551-11.925.948-15.5.883-3.575-.065-9.213-.473-12.528-.907-3.315-.433-8.94-1.541-12.5-2.461-3.56-.92-9.48-2.951-13.157-4.513-3.677-1.562-9.203-4.45-12.279-6.418-3.077-1.968-7.68-5.488-10.229-7.822-2.549-2.334-6.367-6.912-8.485-10.172-2.119-3.26-4.758-8.864-5.867-12.452-1.108-3.588-2.292-9.808-2.632-13.822l-.616-7.298zm318.293-6h-96.29l.566 6.751c.311 3.713 1.509 9.273 2.663 12.356 1.153 3.082 3.49 7.708 5.193 10.279 1.704 2.572 4.985 5.974 7.291 7.561 2.307 1.587 6.799 3.643 9.983 4.569 3.768 1.095 9.157 1.657 15.441 1.61 6.188-.046 12.473-.794 17.508-2.085 4.32-1.107 11.432-3.919 15.804-6.248 5.387-2.871 8.174-3.871 8.645-3.104.383.623 2.946 5.711 5.696 11.307 5 10.174 5 10.174 2.151 12.627-1.567 1.348-5.892 3.984-9.611 5.857-3.719 1.873-9.558 4.347-12.975 5.498-3.417 1.151-10.567 2.749-15.889 3.552-5.322.802-12.826 1.402-16.676 1.333-3.85-.069-9.509-.449-12.575-.844-3.067-.395-8.692-1.671-12.5-2.837-3.809-1.165-9.782-3.816-13.274-5.892-3.492-2.076-9.654-7.234-13.694-11.462-5.655-5.92-8.372-9.833-11.813-17.008-2.457-5.126-5.295-12.92-6.306-17.32-1.388-6.041-1.838-12.054-1.838-24.556 0-13.56.407-18.348 2.247-26.458 1.321-5.818 3.928-13.292 6.322-18.125 2.241-4.523 6.636-11.275 9.767-15.003 3.24-3.858 8.948-8.992 13.243-11.914 4.153-2.824 10.446-6.164 13.985-7.423 5.133-1.824 9.271-2.386 20.436-2.776 11.04-.386 15.537-.127 21.271 1.223 3.999.942 9.849 3.013 13 4.602 3.151 1.59 7.939 4.796 10.64 7.125 2.7 2.329 7.085 7.567 9.744 11.64 2.73 4.181 5.912 10.818 7.312 15.249 1.363 4.314 2.937 10.673 3.498 14.13.561 3.457 1.023 12.923 1.027 21.036L1361 1025zm123.169-24.313c-.594-18.343-1.183-22.19-2.535-24.923-1.017-2.056-3.228-5.086-4.914-6.734-1.686-1.648-5.125-3.791-7.643-4.763-2.915-1.125-7.301-1.767-12.077-1.767-4.125 0-9.32.553-11.545 1.229-2.225.676-5.933 2.844-8.24 4.819-2.968 2.541-4.594 4.96-5.56 8.271-1.365 4.681-1.365 4.681-18.26 4.681-16.895 0-16.895 0-16.621-5.5.18-3.625 1.289-7.591 3.255-11.634 2.046-4.209 5.216-8.242 10.099-12.848 4.536-4.279 9.664-7.934 14.143-10.08 3.864-1.852 10.446-4.15 14.627-5.107 4.954-1.133 11.782-1.739 19.602-1.739 7.786 0 14.649.606 19.543 1.726 4.149.95 10.363 3.06 13.809 4.69 3.503 1.656 8.942 5.505 12.335 8.727 3.338 3.171 7.12 7.417 8.404 9.436 1.284 2.02 3.344 6.52 4.578 10 2.175 6.136 2.263 7.881 2.886 57.329.513 40.761.94 52.004 2.128 56 .817 2.75 1.774 6.463 2.126 8.25.641 3.25.641 3.25-17.24 3.25h-17.881l-2.231-8.446c-1.284-4.859-2.857-8.685-3.705-9.011-.917-.352-3.956 1.757-8.044 5.581-4.044 3.784-9.312 7.449-13.702 9.533-3.922 1.863-9.803 3.824-13.068 4.359-3.266.535-8.188.903-10.938.818-2.75-.085-6.575-.327-8.5-.537-1.925-.211-5.975-1.078-9-1.927-3.025-.849-7.844-2.877-10.709-4.507-2.865-1.629-7.021-5.022-9.237-7.539-2.215-2.517-5.118-6.882-6.451-9.7-1.333-2.818-2.981-7.826-3.662-11.127-.744-3.602-1.04-9.803-.74-15.5.402-7.664 1.044-10.655 3.324-15.497 1.692-3.593 5.084-8.221 8.456-11.535 3.483-3.424 8.552-6.978 13.295-9.322 4.565-2.256 11.416-4.561 16.944-5.702 6.077-1.254 13.422-1.921 21.28-1.933 6.6-.01 16.425-.311 21.834-.669l9.835-.652zM1793.263 1042c-.819 12.761-1.748 16.426-3.957 21.111-1.656 3.514-4.765 8.488-6.909 11.054-2.143 2.565-6.147 6.444-8.897 8.621-2.75 2.176-7.809 5.369-11.243 7.096-3.434 1.727-8.803 3.807-11.932 4.622-3.128.814-9.769 1.684-14.757 1.932-4.987.247-11.768.032-15.068-.48-3.3-.512-8.925-1.829-12.5-2.927-3.575-1.098-8.968-3.423-11.984-5.167-3.016-1.743-8.04-5.726-11.165-8.851-3.125-3.125-7.468-8.445-9.65-11.822-2.183-3.376-5.125-9.029-6.539-12.561-1.414-3.531-3.379-10.359-4.366-15.173-1.291-6.291-1.796-13.278-1.796-24.853 0-13.286.389-17.676 2.226-25.102 1.225-4.95 4.239-13.05 6.699-18 2.46-4.95 6.73-11.767 9.488-15.149 2.843-3.487 8.091-8.194 12.12-10.873 3.908-2.598 10.269-5.794 14.137-7.102 3.867-1.309 11.036-2.833 15.931-3.387a78.2 78.2 0 0117.872.008c4.935.559 11.851 2.061 15.37 3.338 3.518 1.277 8.531 3.573 11.14 5.102 2.609 1.529 7.302 5.378 10.428 8.553 3.126 3.176 7.111 8.451 8.855 11.723 1.745 3.272 3.861 8.595 4.703 11.829.842 3.233 1.531 8.484 1.531 11.668 0 5.79 0 5.79-15.871 5.79s-15.871 0-16.512-4.827c-.352-2.654-1.799-7.153-3.217-9.997-1.417-2.844-4.389-6.723-6.605-8.619-2.215-1.897-6.081-4.148-8.59-5.003-2.509-.855-7.099-1.554-10.202-1.554-3.102 0-7.879.665-10.615 1.477-2.737.813-6.926 3.148-9.311 5.189-2.802 2.399-5.516 6.173-7.671 10.671-1.835 3.828-4.107 10.38-5.049 14.561-1.143 5.071-1.712 11.931-1.709 20.602.004 8.022.619 15.954 1.607 20.716.881 4.243 2.816 10.42 4.299 13.726 1.484 3.306 4.241 7.6 6.128 9.543 1.887 1.942 5.318 4.509 7.624 5.703 3.057 1.582 6.574 2.291 12.975 2.615 6.799.344 9.826.046 13.404-1.321 2.542-.97 6.386-3.358 8.541-5.305 2.155-1.947 4.841-5.348 5.968-7.558 1.127-2.209 2.279-5.727 2.56-7.818.509-3.801.509-3.801 16.509-3.801h16zM1562 1094V937h15.955c15.954 0 15.954 0 16.5 3.5l1.08 6.944c.352 2.27 1.215 3.659 2.531 4.077 1.521.483 3.272-.642 7.355-4.725 2.947-2.947 7.771-6.68 10.719-8.296 4.737-2.596 6.521-2.975 15.36-3.264 5.5-.179 10.618.092 11.373.604 1.16.786 1.12 2.849-.258 13.295-.896 6.801-1.884 14.008-2.194 16.016-.563 3.652-.563 3.652-13.242 4.033-10.842.326-13.313.715-17.055 2.684-2.407 1.266-5.506 3.501-6.887 4.967-1.381 1.466-3.347 4.015-4.37 5.665-1.753 2.828-1.86 6.114-1.863 57.25L1597 1094h-35zm266 0V868h34.879l.311 41.451c.23 30.785.622 41.763 1.522 42.662.949.949 2.198.303 5.755-2.976 2.499-2.303 6.678-5.542 9.288-7.198 2.61-1.656 7.605-3.895 11.1-4.975 4.555-1.407 9.241-1.964 16.54-1.964 5.924 0 12.647.641 16.07 1.533 3.237.843 8.056 2.714 10.709 4.158 2.653 1.444 7.324 5.247 10.38 8.451 3.294 3.454 6.734 8.422 8.449 12.203 1.59 3.508 3.703 10.316 4.694 15.129 1.607 7.801 1.803 14.626 1.803 62.888v54.138l-17.173.273-17.174.274-.392-53.274c-.342-46.427-.608-53.927-2.068-58.361-.921-2.799-2.698-6.607-3.948-8.463-1.251-1.856-4.068-4.616-6.26-6.132-2.637-1.825-6.268-3.113-10.735-3.807-4.718-.733-8.736-.731-13.347.006-3.629.579-9.141 2.347-12.25 3.928s-7.228 4.515-9.153 6.52c-3.5 3.645-3.5 3.645-3.802 61.591l-.303 57.945H1828zm-344-70.153c-37.527.637-38.779.784-44.026 3.245-3.27 1.534-7.214 4.509-9.659 7.288-2.745 3.118-4.534 6.363-5.324 9.658-.913 3.805-.918 6.098-.022 9.832.767 3.197 2.304 5.972 4.474 8.075 1.819 1.763 5.05 3.826 7.182 4.586 2.131.76 6.865 1.401 10.52 1.425 3.915.026 9.275-.768 13.047-1.933 3.521-1.088 8.834-3.677 11.807-5.754 2.972-2.077 6.889-5.722 8.703-8.1 3.298-4.325 3.298-4.325 3.298-16.323v-11.999zM1326.289 999c-.978-12.924-1.989-16.898-4.096-21.402-1.827-3.904-4.32-7.356-6.529-9.041-1.966-1.499-5.691-3.363-8.278-4.141-2.587-.779-7.22-1.396-10.295-1.372-3.075.024-7.293.651-9.373 1.393-2.081.742-5.231 2.344-7 3.56-1.77 1.216-4.715 4.165-6.544 6.553-1.829 2.389-4.223 6.705-5.32 9.592-1.097 2.887-2.251 7.411-2.564 10.054-.569 4.804-.569 4.804 29.715 4.804h30.284z" fill="url(#b)" stroke="#000" stroke-width="3" stroke-linejoin="round" stroke-linecap="round"/></svg>