<svg xmlns="http://www.w3.org/2000/svg" width="1024" height="1024"><defs><style>@import url(https://fonts.googleapis.com/css2?family=Raleway&amp;family=Press%20Start%202P&amp;family=Abril%20Fatface&amp;family=Days%20One&amp;display=swap);</style></defs><rect width="100%" height="100%" fill="rgba(0, 0, 0, 1)"/><text font-family="Raleway" font-size="75.718" style="white-space:pre" fill="#929ade" transform="rotate(-11.5 3434.52 -2927.945)"><tspan x="-210.3" y="23.79">Tattoo Shop</tspan></text><text font-family="Days One" font-size="57.902" style="white-space:pre" fill="#de81a7" transform="rotate(11.5 -1001.98 2630.198)"><tspan x="-166.31" y="18.19">Night Club</tspan></text><text font-family="Press Start 2P" font-size="22.27" style="white-space:pre" fill="#d96ee4" transform="rotate(-30.7 1247.908 -188.81)"><tspan x="-200.43" y="7">Physical Therapist</tspan></text><text font-family="Press Start 2P" font-size="40.086" style="white-space:pre" fill="#d96ee4" transform="matrix(.96 -.29 .29 .96 665 417)"><tspan x="-340.73" y="12.59">convenience store</tspan></text><text font-family="Helvetica" font-size="48.994" style="white-space:pre" fill="#e8aa74" transform="matrix(-.38 .93 -.93 -.38 222 518)"><tspan x="-148.42" y="15.39">Softball Team</tspan></text><text font-family="Press Start 2P" font-size="35.632" style="white-space:pre" fill="#929ade" transform="rotate(-35.9 583.16 -200.338)"><tspan x="-249.42" y="11.19">Small Business</tspan></text><text font-family="Press Start 2P" font-size="17.816" style="white-space:pre" fill="#929ade" transform="rotate(-52.4 663.476 -95.246)"><tspan x="-115.8" y="5.6">Auto Mechanic</tspan></text><text font-family="Press Start 2P" font-size="17.816" style="white-space:pre" fill="#11fa0a" transform="rotate(-35.9 1266.294 -553.227)"><tspan x="-106.9" y="5.6">Snow Removal</tspan></text><text font-family="Press Start 2P" font-size="26.724" style="white-space:pre" fill="#11fa0a" transform="matrix(.95 -.3 .3 .95 832 525)"><tspan x="-173.71" y="8.4">Custom Orders</tspan></text><text font-family="Press Start 2P" font-size="13.362" style="white-space:pre" fill="#e8aa74" transform="rotate(-37 1037.5 -922.5)"><tspan x="-80.17" y="4.2">Pet Grooming</tspan></text><text font-family="Days One" font-size="44.54" style="white-space:pre" fill="#fff" transform="matrix(.5 .87 -.87 .5 838 727)"><tspan x="-137.86" y="13.99">Handy Man</tspan></text><text font-family="Press Start 2P" font-size="48.994" style="white-space:pre" fill="#8ae4e2" transform="rotate(155.5 249.089 276.763)"><tspan x="-318.46" y="15.39">Grocery Store</tspan></text><text font-family="Abril Fatface" font-size="44.54" style="white-space:pre" fill="#929ade" transform="rotate(104.5 -182.56 431.134)"><tspan x="-135.96" y="13.99">Construction</tspan></text><text font-family="Helvetica" font-size="31.178" style="white-space:pre" fill="#8ae4e2" transform="rotate(-114.2 358.955 192.447)"><tspan x="-143.82" y="9.79">Marijuana Distributor</tspan></text><text font-family="Raleway" font-size="35.632" style="white-space:pre" fill="#e8aa74" transform="matrix(-.22 .97 -.97 -.22 135 463)"><tspan x="-145.39" y="11.19">Medium Business</tspan></text><text font-family="Press Start 2P" font-size="17.816" style="white-space:pre" fill="#e47b7b" transform="rotate(65.8 -189.279 821.62)"><tspan x="-97.99" y="5.6">Dry Cleaner</tspan></text><text font-family="Days One" font-size="31.178" style="white-space:pre" fill="#d96ee4" transform="rotate(-152.9 237.693 94)"><tspan x="-142.5" y="9.79">Interior Designer</tspan></text><text font-family="Raleway" font-size="53.448" style="white-space:pre" fill="#e47b7b" transform="rotate(-92.9 740.048 -121.95)"><tspan x="-105.88" y="16.79">Plumber</tspan></text><text font-family="Press Start 2P" font-size="22.27" style="white-space:pre" fill="#8ae4e2" transform="rotate(-63.9 851.157 -121.502)"><tspan x="-100.21" y="7">Home Care</tspan></text><text font-family="Press Start 2P" font-size="22.27" style="white-space:pre" fill="#fff" transform="matrix(-.9 -.43 .43 -.9 391 260)"><tspan x="-100.21" y="7">Computers</tspan></text><text font-family="Press Start 2P" font-size="26.724" style="white-space:pre" fill="#e8aa74" transform="rotate(-58 700.742 -329.001)"><tspan x="-133.62" y="8.4">Hair Salon</tspan></text><text font-family="Helvetica" font-size="35.632" style="white-space:pre" fill="#de81a7" transform="matrix(.16 -.99 .99 .16 176 463)"><tspan x="-120.81" y="11.19">Carpet Cleaner</tspan></text><text font-family="Press Start 2P" font-size="31.178" style="white-space:pre" fill="#e47b7b" transform="matrix(.43 .91 -.91 .43 313 445)"><tspan x="-124.71" y="9.79">Magician</tspan></text><text font-family="Helvetica" font-size="31.178" style="white-space:pre" fill="#fff" transform="rotate(-11.5 1774.607 -1383.37)"><tspan x="-103.12" y="9.79">Clothing Brand</tspan></text><text font-family="Helvetica" font-size="57.902" style="white-space:pre" fill="#11fa0a" transform="rotate(-31.8 1154.581 -912.854)"><tspan x="-67.61" y="18.19">Band</tspan></text><text font-family="Days One" font-size="31.178" style="white-space:pre" fill="#929ade" transform="rotate(-18.2 1934.414 -1860.248)"><tspan x="-97.27" y="9.79">Real Estate</tspan></text><text font-family="Days One" font-size="26.724" style="white-space:pre" fill="#e47b7b" transform="matrix(.96 -.27 .27 .96 680 712)"><tspan x="-102.58" y="8.4">Drop Shipping</tspan></text><text font-family="Abril Fatface" font-size="35.632" style="white-space:pre" fill="#e47b7b" transform="rotate(-82 309.88 194.44)"><tspan x="-90.31" y="11.19">Freelancer</tspan></text><text font-family="Raleway" font-size="31.178" style="white-space:pre" fill="#de81a7" transform="rotate(35 -858.774 1636.104)"><tspan x="-88.02" y="9.79">Liquer Store</tspan></text><text font-family="Raleway" font-size="26.724" style="white-space:pre" fill="#8ae4e2" transform="rotate(-33.9 1354.453 -85.255)"><tspan x="-92.23" y="8.4">Greeting Cards</tspan></text><text font-family="Abril Fatface" font-size="31.178" style="white-space:pre" fill="#e8aa74" transform="rotate(-49.5 866.99 54.535)"><tspan x="-75.36" y="9.79">Marketing</tspan></text><text font-family="Abril Fatface" font-size="31.178" style="white-space:pre" fill="#11fa0a" transform="matrix(-.94 -.35 .35 -.94 512 192)"><tspan x="-77.79" y="9.79">Enterprise</tspan></text><text font-family="Press Start 2P" font-size="22.27" style="white-space:pre" fill="#de81a7" transform="matrix(-.47 -.89 .89 -.47 509 702)"><tspan x="-66.81" y="7">Barber</tspan></text><text font-family="Raleway" font-size="17.816" style="white-space:pre" fill="#de81a7" transform="rotate(-21.6 1564.104 -1095.98)"><tspan x="-104.53" y="5.6">Debt Collection Agencies</tspan></text><text font-family="Days One" font-size="35.632" style="white-space:pre" fill="#8ae4e2" transform="rotate(-32.9 871.438 -497.352)"><tspan x="-71.58" y="11.19">Lawyer</tspan></text><text font-family="Abril Fatface" font-size="22.27" style="white-space:pre" fill="#929ade" transform="translate(810 475)"><tspan x="-80.75" y="7">Movie Producer</tspan></text><text font-family="Abril Fatface" font-size="26.724" style="white-space:pre" fill="#fff" transform="rotate(-55.3 940.826 -212.738)"><tspan x="-62.01" y="8.4">Nail Salon</tspan></text><text font-family="Press Start 2P" font-size="71.264" style="white-space:pre" fill="#fff" transform="rotate(-24.5 916.345 -574.46)"><tspan x="-213.79" y="22.39">Artist</tspan></text><text font-family="Days One" font-size="8.908" style="white-space:pre" fill="#e47b7b" transform="rotate(-65.2 540.275 -266.638)"><tspan x="-40.72" y="2.8">Waste Collection</tspan></text><text font-family="Raleway" font-size="22.27" style="white-space:pre" fill="#e8aa74" transform="rotate(79 113.783 878.404)"><tspan x="-71.08" y="7">Trading Cards</tspan></text><text font-family="Days One" font-size="17.816" style="white-space:pre" fill="#d96ee4" transform="translate(686 394)"><tspan x="-86.76" y="5.6">Cleaning Services</tspan></text><text font-family="Abril Fatface" font-size="17.816" style="white-space:pre" fill="#e8aa74" transform="rotate(-147.1 510.644 265.898)"><tspan x="-73.79" y="5.6">Human Resources</tspan></text><text font-family="Raleway" font-size="22.27" style="white-space:pre" fill="#929ade" transform="matrix(.58 -.81 .81 .58 381 464)"><tspan x="-67.82" y="7">Comic Books</tspan></text><text font-family="Abril Fatface" font-size="57.902" style="white-space:pre" fill="#d96ee4" transform="matrix(.64 -.76 .76 .64 268 569)"><tspan x="-35.67" y="18.19">DJ</tspan></text><text font-family="Days One" font-size="11.135" style="white-space:pre" fill="#e8aa74" transform="rotate(-136.9 491.749 159.89)"><tspan x="-34.62" y="3.5">Collectibles</tspan></text><text font-family="Raleway" font-size="44.54" style="white-space:pre" fill="#11fa0a" transform="rotate(-180 233.404 280.833)"><tspan x="-52.38" y="13.99">Hvac</tspan></text><text font-family="Abril Fatface" font-size="26.724" style="white-space:pre" fill="#de81a7" transform="rotate(31.8 -327.884 681.477)"><tspan x="-56.07" y="8.4">Day Care</tspan></text><text font-family="Days One" font-size="22.27" style="white-space:pre" fill="#de81a7" transform="rotate(-42.3 1055.663 -39.593)"><tspan x="-60.54" y="7">Developer</tspan></text><text font-family="Raleway" font-size="26.724" style="white-space:pre" fill="#fff" transform="rotate(-55.3 995.72 -503.464)"><tspan x="-48.16" y="8.4">Air BNB</tspan></text><text font-family="Days One" font-size="11.135" style="white-space:pre" fill="#8ae4e2" transform="rotate(-119.3 229.053 139.412)"><tspan x="-28.81" y="3.5">Therapist</tspan></text><text font-family="Helvetica" font-size="22.27" style="white-space:pre" fill="#e47b7b" transform="rotate(-14 3404.103 -599.487)"><tspan x="-55.09" y="7">Book Store</tspan></text><text font-family="Days One" font-size="17.816" style="white-space:pre" fill="#929ade" transform="rotate(146.1 170.441 314.452)"><tspan x="-61.39" y="5.6">Landscaping</tspan></text><text font-family="Raleway" font-size="26.724" style="white-space:pre" fill="#d96ee4" transform="matrix(.71 -.7 .7 .71 358 385)"><tspan x="-45.99" y="8.4">T Shirts</tspan></text><text font-family="Helvetica" font-size="22.27" style="white-space:pre" fill="#de81a7" transform="matrix(.7 -.72 .72 .7 550 524)"><tspan x="-43.94" y="7">Software</tspan></text><text font-family="Helvetica" font-size="17.816" style="white-space:pre" fill="#d96ee4" transform="rotate(-78.5 296.013 116.133)"><tspan x="-50.18" y="5.6">Travel Agent</tspan></text><text font-family="Abril Fatface" font-size="22.27" style="white-space:pre" fill="#e47b7b" transform="matrix(.93 -.36 .36 .93 673 691)"><tspan x="-40.71" y="7">Staffing</tspan></text><text font-family="Days One" font-size="22.27" style="white-space:pre" fill="#fff" transform="matrix(.87 .5 -.5 .87 493 293)"><tspan x="-42.88" y="7">Movies</tspan></text><text font-family="Helvetica" font-size="26.724" style="white-space:pre" fill="#d96ee4" transform="matrix(.89 -.45 .45 .89 753 414)"><tspan x="-38.62" y="8.4">Dating</tspan></text><text font-family="Raleway" font-size="17.816" style="white-space:pre" fill="#fff" transform="matrix(.92 -.4 .4 .92 475 399)"><tspan x="-50.49" y="5.6">Pest Control</tspan></text><text font-family="Abril Fatface" font-size="17.816" style="white-space:pre" fill="#11fa0a" transform="rotate(-57.3 535.608 -65.024)"><tspan x="-39.53" y="5.6">Car Wash</tspan></text><text font-family="Raleway" font-size="22.27" style="white-space:pre" fill="#11fa0a" transform="rotate(-75.5 317.307 198.949)"><tspan x="-38.54" y="7">Parking</tspan></text><text font-family="Helvetica" font-size="17.816" style="white-space:pre" fill="#fff" transform="rotate(-142.2 328.097 .481)"><tspan x="-43.58" y="5.6">Body Shop</tspan></text><text font-family="Abril Fatface" font-size="17.816" style="white-space:pre" fill="#de81a7" transform="rotate(-102.1 706.368 -8.464)"><tspan x="-43.36" y="5.6">vape Store</tspan></text><text font-family="Helvetica" font-size="17.816" style="white-space:pre" fill="#8ae4e2" transform="rotate(62.6 -186.703 857.1)"><tspan x="-43.57" y="5.6">Electronics</tspan></text><text font-family="Days One" font-size="26.724" style="white-space:pre" fill="#11fa0a" transform="matrix(-.52 -.85 .85 -.52 713 644)"><tspan x="-36.65" y="8.4">Soap</tspan></text><text font-family="Abril Fatface" font-size="22.27" style="white-space:pre" fill="#d96ee4" transform="rotate(-82 372.513 116.526)"><tspan x="-37.98" y="7">Dentist</tspan></text><text font-family="Raleway" font-size="22.27" style="white-space:pre" fill="#e47b7b" transform="matrix(.67 -.75 .75 .67 670 756)"><tspan x="-34.87" y="7">Doctor</tspan></text><text font-family="Helvetica" font-size="26.724" style="white-space:pre" fill="#929ade" transform="matrix(.96 -.27 .27 .96 741 537)"><tspan x="-31.19" y="8.4">Hotel</tspan></text><text font-family="Raleway" font-size="13.362" style="white-space:pre" fill="#8ae4e2" transform="matrix(-.99 .1 -.1 -.99 345 183)"><tspan x="-36.31" y="4.2">Dog Walker</tspan></text><text font-family="Abril Fatface" font-size="22.27" style="white-space:pre" fill="#8ae4e2" transform="rotate(147.1 90.732 203.802)"><tspan x="-31.17" y="7">Books</tspan></text><text font-family="Helvetica" font-size="22.27" style="white-space:pre" fill="#11fa0a" transform="rotate(24.5 -1454.597 1829.058)"><tspan x="-23.52" y="7">Data</tspan></text><text font-family="Helvetica" font-size="13.362" style="white-space:pre" fill="#929ade" transform="matrix(-.71 -.71 .71 -.71 81 599)"><tspan x="-27.85" y="4.2">Pet Store</tspan></text><text font-family="Helvetica" font-size="22.27" style="white-space:pre" fill="#e8aa74" transform="matrix(.04 -1 1 .04 816 414)"><tspan x="-9.9" y="7">IT</tspan></text></svg>