<?xml version="1.0" standalone="no"?>
<!DOCTYPE svg PUBLIC "-//W3C//DTD SVG 20010904//EN"
 "http://www.w3.org/TR/2001/REC-SVG-20010904/DTD/svg10.dtd">
<svg version="1.0" xmlns="http://www.w3.org/2000/svg"
 width="818.000000pt" height="818.000000pt" viewBox="0 0 818.000000 818.000000"
 preserveAspectRatio="xMidYMid meet">
<metadata>
Created by potrace 1.14, written by Peter Selinger 2001-2017
</metadata>
<g transform="translate(0.000000,818.000000) scale(0.100000,-0.100000)"
fill="#000000" stroke="none">
<path d="M1953 8149 c-26 -9 -81 -121 -118 -239 -28 -89 -30 -97 -45 -171 -34
-173 -32 -624 5 -786 3 -13 7 -31 9 -41 23 -102 68 -235 158 -466 68 -175 74
-192 84 -247 7 -40 -15 -52 -88 -45 -59 5 -163 29 -253 57 -22 7 -42 13 -45
14 -36 8 -152 50 -156 56 -3 5 -14 9 -25 9 -10 0 -19 5 -19 10 0 6 -3 9 -7 8
-10 -3 -128 57 -165 84 -16 11 -28 17 -28 14 0 -6 -164 107 -220 151 -67 54
-216 209 -285 298 -38 50 -73 92 -77 93 -5 2 -8 8 -8 13 0 9 -89 129 -116 157
-28 27 -49 12 -95 -68 -26 -45 -75 -154 -94 -210 -1 -3 -6 -16 -12 -30 -16
-37 -63 -192 -69 -225 -3 -16 -8 -33 -12 -39 -3 -6 -7 -17 -7 -26 -1 -8 -7
-40 -14 -70 -20 -95 -21 -103 -28 -180 -13 -145 -7 -399 12 -530 10 -70 36
-207 42 -220 3 -8 7 -19 8 -25 2 -5 15 -46 30 -90 26 -80 31 -91 78 -195 14
-30 35 -77 47 -105 12 -27 32 -63 44 -80 11 -16 20 -32 20 -35 -2 -8 57 -110
68 -116 5 -3 13 -16 18 -27 10 -27 138 -201 151 -205 5 -2 9 -10 9 -17 0 -7 4
-15 8 -17 5 -1 33 -34 62 -73 56 -73 164 -212 179 -231 22 -28 60 -91 65 -111
8 -24 -6 -29 -104 -38 -33 -3 -60 -12 -66 -21 -11 -14 -11 -179 -1 -224 10
-41 21 -116 19 -124 -2 -4 1 -13 6 -20 5 -6 12 -28 16 -49 7 -39 70 -246 86
-282 5 -11 21 -49 36 -85 32 -75 88 -182 118 -225 63 -92 113 -122 196 -121
105 3 136 30 204 179 20 42 36 83 36 90 0 7 4 17 9 22 9 10 80 205 86 238 2 9
7 22 10 27 3 5 8 18 10 27 1 10 15 60 30 112 15 51 28 98 29 105 2 6 8 37 15
68 7 32 14 70 16 85 2 16 4 29 6 31 3 4 5 15 13 76 4 32 9 68 11 80 3 11 7 55
10 97 2 42 7 101 10 130 3 30 7 79 10 109 8 93 14 123 27 131 15 9 94 3 148
-11 19 -5 46 -11 60 -14 14 -2 37 -9 53 -15 15 -6 27 -9 27 -6 0 2 31 -7 70
-20 38 -13 82 -26 97 -28 16 -3 55 -13 88 -21 58 -16 135 -28 183 -30 12 0 22
-3 22 -6 0 -8 647 -4 730 4 53 6 201 30 245 40 6 2 28 6 50 11 22 4 83 18 135
31 52 12 107 25 123 28 44 9 70 15 97 22 14 4 53 7 87 8 51 1 65 -3 77 -19 42
-56 -37 -188 -224 -375 -129 -129 -227 -209 -340 -278 -73 -44 -280 -153 -280
-147 0 2 -25 -7 -55 -20 -55 -25 -198 -73 -356 -119 -102 -31 -140 -56 -123
-83 15 -25 54 -43 111 -50 118 -15 844 -7 929 11 12 2 39 7 60 10 22 4 47 9
57 12 11 3 29 7 40 9 12 2 47 10 79 19 31 8 67 17 80 20 54 11 161 46 174 57
8 6 14 9 14 6 0 -3 19 2 43 12 43 19 78 33 87 36 44 14 368 171 380 185 3 3
19 12 35 20 17 8 32 17 35 20 3 3 25 16 50 29 49 27 222 140 230 151 3 4 16
13 29 20 14 7 83 54 155 104 72 51 138 95 147 98 9 4 26 0 37 -8 34 -24 22
-130 -38 -319 -25 -79 -89 -215 -102 -215 -4 0 -8 -6 -8 -12 0 -7 -16 -33 -35
-57 -19 -24 -35 -47 -35 -50 0 -3 -17 -25 -38 -48 -20 -24 -46 -54 -57 -68
-11 -15 -32 -41 -47 -58 -15 -18 -28 -38 -28 -44 0 -7 -1 -16 -2 -20 -10 -23
345 -21 464 3 13 2 41 6 63 9 43 5 77 11 103 19 9 3 31 8 47 11 17 3 35 7 40
9 83 23 109 31 160 48 58 19 107 39 191 79 22 10 44 19 48 19 4 0 12 5 19 10
7 6 35 25 62 42 28 18 52 35 55 38 3 3 22 18 44 34 34 26 111 94 169 150 11
11 49 41 85 68 59 45 66 48 85 35 26 -17 34 -45 52 -174 3 -21 8 -48 11 -61 2
-12 7 -48 10 -80 6 -70 13 -113 20 -124 3 -4 0 -8 -6 -8 -6 0 -8 -5 -3 -13 8
-14 9 -17 17 -89 13 -127 17 -165 22 -188 2 -14 7 -41 10 -60 3 -19 10 -60 15
-90 6 -30 11 -61 12 -67 0 -7 9 -21 20 -30 15 -15 40 -18 126 -20 113 -2 173
11 196 44 7 10 22 29 34 42 12 13 21 28 21 32 0 4 6 14 14 22 23 22 110 193
144 282 43 114 45 118 49 140 2 11 10 54 19 95 8 41 17 91 19 110 2 19 6 62
10 95 9 86 25 177 36 197 25 47 76 30 152 -51 55 -58 58 -61 70 -61 18 0 38
48 45 110 17 134 4 519 -18 560 -6 11 -7 20 -3 20 4 0 2 5 -5 12 -7 7 -12 17
-12 24 0 6 -7 28 -15 48 -8 20 -15 38 -16 41 -4 36 -152 285 -169 285 -6 0
-10 6 -10 13 0 6 -26 39 -58 72 -125 131 -222 249 -235 287 -6 16 6 30 28 34
64 11 91 14 160 19 169 13 198 16 206 21 13 8 11 34 -3 34 -6 0 -9 3 -5 6 8 9
-75 79 -155 131 -36 24 -69 43 -71 43 -3 0 -31 12 -63 27 -68 31 -69 32 -153
39 -36 3 -68 7 -73 10 -4 3 -8 2 -8 -3 0 -4 -53 -8 -117 -7 -132 1 -200 -9
-373 -53 -99 -25 -145 -25 -146 2 -1 11 -5 49 -8 85 -3 36 -8 167 -11 290 -6
245 -14 460 -20 500 -2 14 -4 35 -4 47 -1 12 -8 29 -18 38 -15 15 -18 15 -41
-12 -27 -30 -119 -170 -197 -298 -77 -126 -131 -208 -155 -233 l-22 -24 -27
29 c-14 17 -52 68 -83 114 -62 91 -173 226 -227 274 -53 47 -175 135 -188 135
-6 0 -13 4 -15 9 -1 4 -41 26 -88 48 -128 60 -152 71 -185 79 -16 4 -34 10
-40 14 -8 6 -43 16 -125 35 -73 18 -256 31 -540 41 -320 10 -409 13 -510 19
-167 9 -297 22 -310 30 -5 3 -28 8 -51 11 -23 3 -71 15 -108 26 -36 10 -75 21
-85 23 -40 9 -152 48 -163 58 -7 5 -13 6 -13 3 0 -4 -12 0 -27 8 -16 8 -59 29
-98 46 -38 18 -95 45 -125 60 -30 16 -75 39 -100 52 -25 13 -47 26 -50 29 -3
3 -32 20 -65 39 -33 19 -62 36 -65 39 -3 3 -25 19 -50 36 -25 16 -52 35 -60
42 -8 7 -44 35 -80 63 -36 28 -83 65 -105 82 -50 40 -319 310 -440 441 -117
127 -154 157 -182 146z"/>
<path d="M1968 2665 c-2 -2 -46 -6 -98 -9 -53 -2 -108 -9 -123 -15 -31 -12
-110 -63 -115 -73 -2 -5 -9 -8 -15 -8 -7 0 -28 -16 -47 -36 -83 -86 -169 -133
-272 -148 -66 -10 -146 -46 -173 -78 -35 -42 -64 -100 -66 -135 -3 -38 11
-112 22 -118 4 -3 15 -20 24 -38 16 -33 65 -73 140 -112 77 -42 102 -73 130
-170 1 -5 4 -14 5 -20 8 -25 22 -90 45 -205 28 -135 63 -257 76 -266 5 -3 9
-11 9 -19 0 -23 80 -136 147 -207 35 -37 63 -65 63 -63 0 3 14 -8 31 -24 27
-26 166 -103 186 -103 4 0 18 -4 30 -9 47 -17 229 -22 818 -22 571 1 836 6
895 18 105 21 255 136 336 257 48 71 55 84 87 158 28 63 40 161 47 382 2 40 7
65 12 62 6 -4 7 1 1 12 -9 20 -9 22 2 144 11 132 21 152 95 190 60 31 103 34
151 12 95 -42 106 -71 115 -296 7 -180 21 -345 32 -381 3 -11 7 -26 8 -34 18
-104 38 -150 97 -230 112 -152 258 -261 367 -276 79 -11 1561 -14 1625 -4 76
13 144 44 220 102 81 62 195 176 195 196 0 3 10 17 23 31 44 48 91 182 133
373 52 243 55 249 173 368 138 137 173 196 168 278 -1 25 -5 51 -8 56 -4 6 -9
21 -13 35 -8 32 -53 83 -91 102 -36 19 -104 35 -178 42 -39 4 -84 31 -148 89
-145 129 -213 173 -284 184 -45 6 -1718 12 -1728 6 -5 -3 -32 -7 -59 -9 -27
-2 -53 -6 -59 -9 -5 -4 -18 -8 -28 -10 -21 -4 -104 -55 -109 -67 -2 -5 -10 -8
-18 -8 -8 0 -14 -4 -14 -10 0 -5 -6 -10 -13 -10 -7 0 -22 -10 -34 -22 -32 -37
-82 -78 -121 -101 -34 -20 -50 -22 -207 -21 -321 1 -425 14 -473 62 -10 10
-36 31 -57 47 -22 17 -42 32 -45 36 -30 34 -159 102 -220 115 -32 7 -1685 16
-1692 9z m1602 -389 c98 -22 194 -120 221 -226 20 -83 15 -605 -6 -641 -2 -3
-6 -18 -9 -33 -13 -74 -155 -200 -237 -211 -86 -12 -282 -16 -739 -15 -676 1
-684 1 -790 57 -89 47 -184 151 -205 223 0 3 -8 30 -17 60 -9 30 -19 71 -21
90 -3 19 -10 69 -16 110 -23 160 -33 266 -33 342 -1 54 5 79 27 124 38 78 75
111 138 122 61 11 1635 9 1687 -2z m3179 0 c62 -11 132 -72 152 -135 18 -52
14 -293 -6 -401 -2 -14 -6 -45 -9 -70 -7 -66 -52 -236 -76 -285 -42 -86 -142
-178 -222 -204 -53 -17 -184 -22 -748 -26 -302 -2 -512 1 -522 6 -12 7 -18 6
-18 -1 0 -6 -5 -8 -10 -5 -6 3 -36 8 -68 10 -132 8 -172 25 -246 106 -39 42
-57 71 -64 101 -9 41 -7 631 2 693 2 17 4 35 5 42 1 6 19 34 41 62 52 66 114
102 188 108 31 3 59 7 61 9 6 6 1504 -4 1540 -10z"/>
</g>
</svg>
